<?xml version="1.0" encoding="utf-8"?>
<!-- Generator: Adobe Illustrator 28.0.0, SVG Export Plug-In . SVG Version: 6.00 Build 0)  -->
<svg version="1.1" id="Capa_1" xmlns="http://www.w3.org/2000/svg" xmlns:xlink="http://www.w3.org/1999/xlink" x="0px" y="0px"
	 viewBox="0 0 1366 768" style="enable-background:new 0 0 1366 768;" xml:space="preserve">
<style type="text/css">
	.st0{fill:#68AFAA;}
</style>
<g>
	<path class="st0" d="M253.63,108.26L67.75,528.63h54.34l50.77-120.11h161.26l51.05,120.11h54.33L253.63,108.26z M192.46,362.77
		l61.17-144.12l61.33,144.12H192.46z"/>
	<polygon class="st0" points="839.84,128.28 791.23,128.28 791.23,426.25 488.11,108.26 488.11,528.62 536.72,528.62 536.72,230.66 
		839.84,548.64 	"/>
	<rect x="931.34" y="128.28" class="st0" width="48.61" height="400.35"/>
	<rect x="1044.67" y="245.5" class="st0" width="17.95" height="147.84"/>
	<path class="st0" d="M1114.36,334.2h22.18c9.57,0,18.13-1.8,25.66-5.39c7.53-3.59,13.52-8.73,17.95-15.42
		c4.44-6.69,6.65-14.54,6.65-23.55c0-9.15-2.22-17.03-6.65-23.65c-4.44-6.62-10.42-11.72-17.95-15.31
		c-7.53-3.59-16.09-5.39-25.66-5.39h-22.18h-8.03h-9.93v147.84h17.95V334.2z M1114.36,262.39h22.18c9.57,0,17.35,2.29,23.34,6.86
		c5.98,4.58,8.98,11.44,8.98,20.59c0,9.01-2.99,15.84-8.98,20.49c-5.99,4.65-13.76,6.97-23.34,6.97h-22.18V262.39z"/>
	<path class="st0" d="M1256.71,378.55c-5.91,0-11.19-1.27-15.84-3.8c-4.65-2.53-8.84-6.05-12.57-10.56
		c-3.73-4.5-7.29-9.71-10.67-15.63l-14.36,9.71c3.24,6.48,7.42,12.57,12.57,18.27c5.14,5.7,11.12,10.28,17.95,13.73
		c6.83,3.45,14.26,5.17,22.28,5.17c5.91,0,11.58-0.99,17-2.96c5.42-1.97,10.28-4.78,14.57-8.45c4.29-3.66,7.67-8.09,10.14-13.3
		c2.46-5.21,3.7-11.05,3.7-17.53c0-6.76-1.2-12.57-3.59-17.42c-2.4-4.86-5.46-9.01-9.19-12.46c-3.73-3.45-7.78-6.3-12.14-8.55
		c-4.37-2.25-8.52-4.08-12.46-5.49c-8.59-2.96-15.38-5.95-20.38-8.98c-5-3.03-8.55-6.26-10.67-9.71c-2.11-3.45-3.17-7.21-3.17-11.3
		c0-4.78,1.83-9.11,5.49-12.99c3.66-3.87,9.5-5.81,17.53-5.81c5.77,0,10.67,1.13,14.68,3.38c4.01,2.25,7.42,5.14,10.24,8.66
		c2.81,3.52,5.14,7.11,6.97,10.77l15.42-8.87c-2.4-5.21-5.7-10.17-9.93-14.89c-4.22-4.72-9.33-8.59-15.31-11.62
		c-5.99-3.03-12.99-4.54-21.01-4.54c-8.31,0-15.7,1.66-22.18,4.96c-6.48,3.31-11.55,7.85-15.21,13.62
		c-3.66,5.77-5.49,12.32-5.49,19.64c0,6.76,1.3,12.46,3.91,17.11c2.6,4.65,5.95,8.55,10.03,11.72c4.08,3.17,8.38,5.78,12.88,7.81
		c4.5,2.04,8.59,3.7,12.25,4.96c5.63,1.97,10.95,4.19,15.95,6.65c5,2.46,9.04,5.67,12.14,9.61c3.1,3.94,4.65,9.22,4.65,15.84
		c0,6.76-2.4,12.32-7.18,16.68C1270.93,376.37,1264.59,378.55,1256.71,378.55z"/>
	<path class="st0" d="M39,640.01h11.04l6.62-14.94h21.41l6.66,14.94h11.04L67.38,578.7L39,640.01z M75.24,616.78H59.49l7.88-18.42
		L75.24,616.78z"/>
	<polygon class="st0" points="111.68,588.57 102.81,588.57 102.81,601.85 96.42,601.85 96.42,609.73 102.81,609.73 102.81,640.01 
		111.68,640.01 111.68,609.73 118.07,609.73 118.07,601.85 111.68,601.85 	"/>
	<path class="st0" d="M151.51,603.34c-2.82-1.55-6.25-2.32-10.29-2.32c-4.04,0-7.55,0.82-10.54,2.45c-2.99,1.63-5.3,3.94-6.93,6.93
		c-1.63,2.99-2.45,6.5-2.45,10.54c0,3.98,0.8,7.47,2.41,10.45c1.6,2.99,3.89,5.31,6.85,6.97c2.96,1.66,6.37,2.49,10.25,2.49
		c4.42,0,8.21-0.86,11.37-2.57c3.15-1.71,5.72-4.29,7.72-7.72l-7.72-3.15c-1.22,2.05-2.74,3.57-4.56,4.56
		c-1.83,1-3.96,1.49-6.39,1.49c-2.32,0-4.3-0.5-5.93-1.49c-1.63-1-2.86-2.45-3.69-4.36c-0.58-1.32-0.94-2.87-1.11-4.61h29.66
		c0.05-0.22,0.1-0.58,0.12-1.08c0.03-0.5,0.04-0.97,0.04-1.41c0-4.09-0.76-7.59-2.28-10.5C156.5,607.12,154.33,604.89,151.51,603.34
		z M135.33,609.31c1.6-1,3.54-1.49,5.81-1.49c1.88,0,3.53,0.42,4.94,1.25c1.41,0.83,2.52,1.99,3.32,3.48
		c0.67,1.24,1.04,2.69,1.15,4.31h-19.83c0.22-1.19,0.54-2.27,0.97-3.24C132.51,611.75,133.73,610.31,135.33,609.31z"/>
	<path class="st0" d="M189.35,601.02c-2.65,0-4.94,0.55-6.85,1.66c-1.91,1.11-3.47,2.79-4.69,5.06v-5.89h-8.96v38.17h8.96v-23.23
		c0-1.71,0.36-3.22,1.08-4.52c0.72-1.3,1.71-2.29,2.99-2.99c1.27-0.69,2.74-1.04,4.4-1.04c2.43,0,4.23,0.72,5.39,2.16
		c1.16,1.44,1.74,3.57,1.74,6.39v23.23h9.21v-24.23c0-4.59-1.13-8.2-3.4-10.83C196.95,602.33,193.66,601.02,189.35,601.02z"/>
	<path class="st0" d="M231.5,601.02c-3.93,0-7.45,0.84-10.58,2.53c-3.13,1.69-5.59,4.02-7.39,7.01c-1.8,2.99-2.7,6.44-2.7,10.37
		c0,3.87,0.9,7.32,2.7,10.33c1.8,3.02,4.26,5.37,7.39,7.05c3.12,1.69,6.65,2.53,10.58,2.53c2.71,0,5.2-0.39,7.47-1.16
		c2.27-0.77,4.07-1.82,5.39-3.15v-9.87c-0.61,1.22-1.55,2.32-2.82,3.32c-1.27,1-2.74,1.77-4.4,2.32c-1.66,0.55-3.4,0.83-5.23,0.83
		c-2.21,0-4.22-0.53-6.02-1.58c-1.8-1.05-3.22-2.48-4.27-4.27c-1.05-1.8-1.58-3.91-1.58-6.35c0-2.38,0.53-4.48,1.58-6.31
		c1.05-1.83,2.48-3.26,4.27-4.31c1.8-1.05,3.8-1.58,6.02-1.58c1.77,0,3.48,0.28,5.14,0.83c1.66,0.55,3.14,1.31,4.44,2.28
		c1.3,0.97,2.25,2.09,2.86,3.36v-9.87c-1.33-1.33-3.13-2.38-5.39-3.15C236.7,601.4,234.21,601.02,231.5,601.02z"/>
	<path class="st0" d="M259.54,581.19c-1.49,0-2.81,0.53-3.94,1.58c-1.13,1.05-1.7,2.35-1.7,3.9c0,1.49,0.57,2.78,1.7,3.86
		c1.13,1.08,2.45,1.62,3.94,1.62c1.6,0,2.95-0.54,4.02-1.62c1.08-1.08,1.62-2.36,1.62-3.86c0-1.55-0.54-2.85-1.62-3.9
		C262.49,581.71,261.15,581.19,259.54,581.19z"/>
	<rect x="255.15" y="601.85" class="st0" width="8.8" height="38.17"/>
	<polygon class="st0" points="299.7,578.61 287.26,591.89 292.32,594.79 307.25,582.35 	"/>
	<path class="st0" d="M304.47,603.55c-3.07-1.69-6.57-2.53-10.5-2.53c-3.93,0-7.44,0.84-10.54,2.53c-3.1,1.69-5.55,4.02-7.34,7.01
		c-1.8,2.99-2.7,6.44-2.7,10.37c0,3.87,0.9,7.32,2.7,10.33c1.8,3.02,4.24,5.37,7.34,7.05c3.1,1.69,6.61,2.53,10.54,2.53
		c3.93,0,7.43-0.84,10.5-2.53c3.07-1.69,5.52-4.04,7.34-7.05c1.82-3.01,2.74-6.46,2.74-10.33c0-3.93-0.91-7.38-2.74-10.37
		C309.99,607.57,307.54,605.24,304.47,603.55z M303.85,627.19c-1,1.8-2.36,3.21-4.11,4.23c-1.74,1.02-3.67,1.53-5.77,1.53
		c-2.16,0-4.09-0.51-5.81-1.53c-1.72-1.02-3.07-2.43-4.07-4.23c-1-1.8-1.49-3.89-1.49-6.26c0-2.38,0.5-4.48,1.49-6.31
		c1-1.83,2.35-3.24,4.07-4.23c1.71-1,3.65-1.49,5.81-1.49c2.1,0,4.02,0.5,5.77,1.49c1.74,1,3.11,2.41,4.11,4.23
		c1,1.82,1.49,3.93,1.49,6.31C305.35,623.31,304.85,625.4,303.85,627.19z"/>
	<path class="st0" d="M343.51,601.02c-2.65,0-4.94,0.55-6.85,1.66c-1.91,1.11-3.47,2.79-4.69,5.06v-5.89h-8.96v38.17h8.96v-23.23
		c0-1.71,0.36-3.22,1.08-4.52c0.72-1.3,1.71-2.29,2.99-2.99c1.27-0.69,2.74-1.04,4.4-1.04c2.43,0,4.23,0.72,5.39,2.16
		c1.16,1.44,1.74,3.57,1.74,6.39v23.23h9.21v-24.23c0-4.59-1.13-8.2-3.4-10.83C351.12,602.33,347.83,601.02,343.51,601.02z"/>
	<polygon class="st0" points="436.28,620.93 393.88,579.03 393.88,640.01 403.5,640.01 403.5,601.02 445.9,642.92 445.9,581.93 
		436.28,581.93 	"/>
	<path class="st0" d="M485.32,603.34c-2.82-1.55-6.25-2.32-10.29-2.32c-4.04,0-7.55,0.82-10.54,2.45c-2.99,1.63-5.3,3.94-6.93,6.93
		c-1.63,2.99-2.45,6.5-2.45,10.54c0,3.98,0.8,7.47,2.41,10.45c1.6,2.99,3.89,5.31,6.85,6.97c2.96,1.66,6.37,2.49,10.25,2.49
		c4.42,0,8.21-0.86,11.37-2.57c3.15-1.71,5.73-4.29,7.72-7.72l-7.72-3.15c-1.22,2.05-2.74,3.57-4.56,4.56
		c-1.83,1-3.96,1.49-6.39,1.49c-2.32,0-4.3-0.5-5.93-1.49c-1.63-1-2.86-2.45-3.69-4.36c-0.58-1.32-0.94-2.87-1.11-4.61h29.66
		c0.05-0.22,0.1-0.58,0.12-1.08c0.03-0.5,0.04-0.97,0.04-1.41c0-4.09-0.76-7.59-2.28-10.5
		C490.31,607.12,488.14,604.89,485.32,603.34z M469.14,609.31c1.6-1,3.54-1.49,5.81-1.49c1.88,0,3.53,0.42,4.94,1.25
		c1.41,0.83,2.52,1.99,3.32,3.48c0.67,1.24,1.04,2.69,1.15,4.31h-19.83c0.22-1.19,0.54-2.27,0.97-3.24
		C466.31,611.75,467.53,610.31,469.14,609.31z"/>
	<path class="st0" d="M527.47,625.08c0,1.72-0.36,3.22-1.08,4.52c-0.72,1.3-1.72,2.3-2.99,2.99c-1.27,0.69-2.77,1.04-4.48,1.04
		c-2.38,0-4.15-0.75-5.31-2.24s-1.74-3.6-1.74-6.31v-23.23h-9.21v24.23c0,4.54,1.15,8.13,3.44,10.79c2.29,2.66,5.57,3.98,9.83,3.98
		c2.65,0,4.94-0.57,6.85-1.7c1.91-1.13,3.47-2.81,4.69-5.02v5.89h8.96v-38.17h-8.96V625.08z"/>
	<path class="st0" d="M569.37,601.64c-1.22-0.41-2.52-0.62-3.9-0.62c-1.94,0-3.8,0.69-5.6,2.07c-1.19,0.91-2.21,2.06-3.11,3.39
		v-4.64h-8.88v38.17h8.88v-21.49c0-1.83,0.21-3.41,0.62-4.77c0.42-1.35,1.09-2.42,2.03-3.19c0.94-0.77,2.16-1.16,3.65-1.16
		c1.11,0,2.02,0.17,2.74,0.5c0.72,0.33,1.49,0.83,2.32,1.49l4.31-7.55C571.61,602.79,570.59,602.05,569.37,601.64z"/>
	<path class="st0" d="M605.5,603.55c-3.07-1.69-6.57-2.53-10.5-2.53c-3.93,0-7.44,0.84-10.54,2.53c-3.1,1.69-5.55,4.02-7.34,7.01
		c-1.8,2.99-2.7,6.44-2.7,10.37c0,3.87,0.9,7.32,2.7,10.33c1.8,3.02,4.24,5.37,7.34,7.05c3.1,1.69,6.61,2.53,10.54,2.53
		c3.93,0,7.43-0.84,10.5-2.53c3.07-1.69,5.52-4.04,7.34-7.05c1.82-3.01,2.74-6.46,2.74-10.33c0-3.93-0.91-7.38-2.74-10.37
		C611.02,607.57,608.57,605.24,605.5,603.55z M604.88,627.19c-1,1.8-2.36,3.21-4.11,4.23c-1.74,1.02-3.67,1.53-5.77,1.53
		c-2.16,0-4.09-0.51-5.81-1.53c-1.72-1.02-3.07-2.43-4.07-4.23c-1-1.8-1.49-3.89-1.49-6.26c0-2.38,0.5-4.48,1.49-6.31
		c1-1.83,2.35-3.24,4.07-4.23c1.71-1,3.65-1.49,5.81-1.49c2.1,0,4.02,0.5,5.77,1.49s3.11,2.41,4.11,4.23c1,1.82,1.49,3.93,1.49,6.31
		C606.37,623.31,605.88,625.4,604.88,627.19z"/>
	<path class="st0" d="M655,603.22c-2.82-1.58-5.89-2.36-9.21-2.36c-3.26,0-6.1,0.82-8.51,2.45c-1.83,1.24-3.33,2.87-4.52,4.89v-6.34
		h-9.04v56.42h9.04v-24.62c1.19,2.04,2.7,3.67,4.52,4.91c2.41,1.63,5.24,2.45,8.51,2.45c3.32,0,6.39-0.79,9.21-2.36
		s5.09-3.87,6.8-6.89c1.71-3.01,2.57-6.62,2.57-10.83c0-4.26-0.86-7.88-2.57-10.87C660.09,607.07,657.82,604.79,655,603.22z
		 M653.5,627.44c-1.05,1.8-2.45,3.15-4.19,4.07c-1.74,0.91-3.67,1.37-5.77,1.37c-1.72,0-3.4-0.46-5.06-1.37
		c-1.66-0.91-3.03-2.25-4.11-4.02c-1.08-1.77-1.62-3.95-1.62-6.55c0-2.6,0.54-4.78,1.62-6.55c1.08-1.77,2.45-3.11,4.11-4.02
		c1.66-0.91,3.35-1.37,5.06-1.37c2.1,0,4.02,0.46,5.77,1.37c1.74,0.91,3.14,2.27,4.19,4.07c1.05,1.8,1.58,3.97,1.58,6.51
		S654.55,625.65,653.5,627.44z"/>
	<path class="st0" d="M694.24,619.93c-1.77-1-3.71-1.91-5.81-2.74c-1.55-0.61-2.95-1.19-4.19-1.74c-1.24-0.55-2.24-1.17-2.99-1.87
		c-0.75-0.69-1.12-1.48-1.12-2.36c0-1.05,0.41-1.85,1.24-2.41c0.83-0.55,1.88-0.83,3.15-0.83c1.88,0,3.71,0.47,5.48,1.41
		c1.77,0.94,3.29,2.16,4.56,3.65l4.98-5.31c-1.05-1.27-2.32-2.41-3.82-3.4c-1.49-1-3.17-1.8-5.02-2.41
		c-1.85-0.61-3.83-0.91-5.93-0.91c-2.32,0-4.49,0.37-6.51,1.12c-2.02,0.75-3.62,1.9-4.81,3.44c-1.19,1.55-1.78,3.49-1.78,5.81
		c0,2.27,0.54,4.15,1.62,5.64c1.08,1.49,2.46,2.7,4.15,3.61c1.69,0.91,3.39,1.7,5.1,2.36c1.71,0.61,3.21,1.2,4.48,1.78
		c1.27,0.58,2.27,1.27,2.99,2.07c0.72,0.8,1.08,1.76,1.08,2.86c0,1.27-0.46,2.27-1.37,2.99c-0.91,0.72-2.17,1.08-3.77,1.08
		c-1.27,0-2.55-0.23-3.82-0.71c-1.27-0.47-2.53-1.19-3.78-2.16c-1.24-0.97-2.48-2.12-3.69-3.44l-5.23,5.23
		c1.11,1.44,2.48,2.81,4.11,4.11c1.63,1.3,3.54,2.35,5.73,3.15c2.18,0.8,4.58,1.2,7.18,1.2c4.2,0,7.54-1.09,10-3.28
		c2.46-2.18,3.69-5.07,3.69-8.67c0-2.32-0.54-4.2-1.62-5.64C697.44,622.15,696.01,620.93,694.24,619.93z"/>
	<rect x="709.01" y="601.85" class="st0" width="8.8" height="38.17"/>
	<path class="st0" d="M713.41,581.19c-1.49,0-2.81,0.53-3.94,1.58c-1.13,1.05-1.7,2.35-1.7,3.9c0,1.49,0.57,2.78,1.7,3.86
		c1.13,1.08,2.45,1.62,3.94,1.62c1.6,0,2.95-0.54,4.02-1.62c1.08-1.08,1.62-2.36,1.62-3.86c0-1.55-0.54-2.85-1.62-3.9
		C716.36,581.71,715.01,581.19,713.41,581.19z"/>
	<path class="st0" d="M747.59,601.02c-3.93,0-7.45,0.84-10.58,2.53c-3.13,1.69-5.59,4.02-7.38,7.01c-1.8,2.99-2.7,6.44-2.7,10.37
		c0,3.87,0.9,7.32,2.7,10.33c1.8,3.02,4.26,5.37,7.38,7.05c3.12,1.69,6.65,2.53,10.58,2.53c2.71,0,5.2-0.39,7.47-1.16
		c2.27-0.77,4.07-1.82,5.39-3.15v-9.87c-0.61,1.22-1.55,2.32-2.82,3.32c-1.27,1-2.74,1.77-4.4,2.32c-1.66,0.55-3.4,0.83-5.23,0.83
		c-2.21,0-4.22-0.53-6.02-1.58c-1.8-1.05-3.22-2.48-4.27-4.27c-1.05-1.8-1.58-3.91-1.58-6.35c0-2.38,0.53-4.48,1.58-6.31
		c1.05-1.83,2.48-3.26,4.27-4.31c1.8-1.05,3.8-1.58,6.02-1.58c1.77,0,3.48,0.28,5.14,0.83c1.66,0.55,3.14,1.31,4.44,2.28
		c1.3,0.97,2.25,2.09,2.86,3.36v-9.87c-1.33-1.33-3.13-2.38-5.39-3.15C752.79,601.4,750.3,601.02,747.59,601.02z"/>
	<path class="st0" d="M798.5,603.55c-3.07-1.69-6.57-2.53-10.5-2.53c-3.93,0-7.44,0.84-10.54,2.53c-3.1,1.69-5.55,4.02-7.34,7.01
		c-1.8,2.99-2.7,6.44-2.7,10.37c0,3.87,0.9,7.32,2.7,10.33c1.8,3.02,4.24,5.37,7.34,7.05c3.1,1.69,6.61,2.53,10.54,2.53
		c3.93,0,7.43-0.84,10.5-2.53c3.07-1.69,5.52-4.04,7.34-7.05c1.82-3.01,2.74-6.46,2.74-10.33c0-3.93-0.91-7.38-2.74-10.37
		C804.02,607.57,801.57,605.24,798.5,603.55z M797.88,627.19c-1,1.8-2.36,3.21-4.11,4.23c-1.74,1.02-3.67,1.53-5.77,1.53
		c-2.16,0-4.09-0.51-5.81-1.53c-1.72-1.02-3.07-2.43-4.07-4.23c-1-1.8-1.49-3.89-1.49-6.26c0-2.38,0.5-4.48,1.49-6.31
		c1-1.83,2.35-3.24,4.07-4.23c1.71-1,3.65-1.49,5.81-1.49c2.1,0,4.02,0.5,5.77,1.49s3.11,2.41,4.11,4.23c1,1.82,1.49,3.93,1.49,6.31
		C799.37,623.31,798.87,625.4,797.88,627.19z"/>
	<rect x="817.04" y="575.29" class="st0" width="8.96" height="64.72"/>
	<polygon class="st0" points="868.4,582.35 860.85,578.61 848.41,591.89 853.47,594.79 	"/>
	<path class="st0" d="M865.62,603.55c-3.07-1.69-6.57-2.53-10.5-2.53c-3.93,0-7.44,0.84-10.54,2.53c-3.1,1.69-5.55,4.02-7.34,7.01
		c-1.8,2.99-2.7,6.44-2.7,10.37c0,3.87,0.9,7.32,2.7,10.33c1.8,3.02,4.24,5.37,7.34,7.05c3.1,1.69,6.61,2.53,10.54,2.53
		c3.93,0,7.43-0.84,10.5-2.53c3.07-1.69,5.52-4.04,7.34-7.05c1.82-3.01,2.74-6.46,2.74-10.33c0-3.93-0.91-7.38-2.74-10.37
		C871.14,607.57,868.69,605.24,865.62,603.55z M865,627.19c-1,1.8-2.36,3.21-4.11,4.23c-1.74,1.02-3.67,1.53-5.77,1.53
		c-2.16,0-4.09-0.51-5.81-1.53c-1.72-1.02-3.07-2.43-4.07-4.23c-1-1.8-1.49-3.89-1.49-6.26c0-2.38,0.5-4.48,1.49-6.31
		c1-1.83,2.35-3.24,4.07-4.23c1.71-1,3.65-1.49,5.81-1.49c2.1,0,4.02,0.5,5.77,1.49c1.74,1,3.11,2.41,4.11,4.23
		c1,1.82,1.49,3.93,1.49,6.31C866.5,623.31,866,625.4,865,627.19z"/>
	<path class="st0" d="M912.88,608.12c-1.25-1.97-2.78-3.55-4.61-4.74c-2.41-1.58-5.21-2.37-8.42-2.37c-3.26,0-6.32,0.78-9.17,2.32
		c-2.85,1.55-5.13,3.78-6.85,6.68c-1.72,2.9-2.57,6.49-2.57,10.75c0,4.15,0.86,7.69,2.57,10.62c1.71,2.93,4,5.17,6.85,6.72
		c2.85,1.55,5.9,2.32,9.17,2.32c3.21,0,6.02-0.79,8.42-2.36c1.82-1.19,3.35-2.77,4.61-4.74v5.86c0,2.88-0.54,5.23-1.62,7.05
		c-1.08,1.83-2.48,3.18-4.19,4.07c-1.72,0.88-3.51,1.33-5.39,1.33c-2.1,0-3.96-0.39-5.56-1.16c-1.6-0.78-2.86-1.85-3.78-3.24
		c-0.91-1.38-1.4-2.93-1.45-4.65h-8.88c0.11,3.32,0.95,6.25,2.53,8.8c1.58,2.54,3.83,4.52,6.76,5.93c2.93,1.41,6.47,2.12,10.62,2.12
		c3.48,0,6.72-0.73,9.71-2.2c2.99-1.47,5.41-3.69,7.26-6.68c1.85-2.99,2.78-6.78,2.78-11.37v-37.34h-8.8V608.12z M911.26,627.28
		c-1.08,1.8-2.46,3.14-4.15,4.02c-1.69,0.89-3.39,1.33-5.1,1.33c-2.05,0-3.94-0.46-5.68-1.37c-1.74-0.91-3.14-2.25-4.19-4.02
		c-1.05-1.77-1.58-3.93-1.58-6.47c0-2.6,0.53-4.78,1.58-6.55c1.05-1.77,2.45-3.11,4.19-4.02c1.74-0.91,3.64-1.37,5.68-1.37
		c1.27,0,2.56,0.25,3.86,0.75c1.3,0.5,2.48,1.26,3.53,2.28c1.05,1.02,1.89,2.27,2.53,3.73c0.64,1.47,0.95,3.19,0.95,5.19
		C912.88,623.31,912.34,625.48,911.26,627.28z"/>
	<path class="st0" d="M938.1,581.19c-1.49,0-2.81,0.53-3.94,1.58c-1.13,1.05-1.7,2.35-1.7,3.9c0,1.49,0.57,2.78,1.7,3.86
		c1.13,1.08,2.45,1.62,3.94,1.62c1.6,0,2.95-0.54,4.02-1.62c1.08-1.08,1.62-2.36,1.62-3.86c0-1.55-0.54-2.85-1.62-3.9
		C941.05,581.71,939.71,581.19,938.1,581.19z"/>
	<rect x="933.7" y="601.85" class="st0" width="8.8" height="38.17"/>
	<path class="st0" d="M972.29,601.02c-3.93,0-7.45,0.84-10.58,2.53c-3.13,1.69-5.59,4.02-7.38,7.01c-1.8,2.99-2.7,6.44-2.7,10.37
		c0,3.87,0.9,7.32,2.7,10.33c1.8,3.02,4.26,5.37,7.38,7.05c3.12,1.69,6.65,2.53,10.58,2.53c2.71,0,5.2-0.39,7.47-1.16
		c2.27-0.77,4.07-1.82,5.39-3.15v-9.87c-0.61,1.22-1.55,2.32-2.82,3.32c-1.27,1-2.74,1.77-4.4,2.32s-3.4,0.83-5.23,0.83
		c-2.21,0-4.22-0.53-6.02-1.58c-1.8-1.05-3.22-2.48-4.27-4.27c-1.05-1.8-1.58-3.91-1.58-6.35c0-2.38,0.53-4.48,1.58-6.31
		c1.05-1.83,2.48-3.26,4.27-4.31c1.8-1.05,3.8-1.58,6.02-1.58c1.77,0,3.48,0.28,5.14,0.83c1.66,0.55,3.14,1.31,4.44,2.28
		c1.3,0.97,2.25,2.09,2.86,3.36v-9.87c-1.33-1.33-3.13-2.38-5.39-3.15C977.49,601.4,975,601.02,972.29,601.02z"/>
	<path class="st0" d="M1018.63,602.34c-2.41-0.94-5.19-1.41-8.34-1.41c-3.54,0-6.68,0.5-9.42,1.49s-4.97,2.02-6.68,3.07l3.65,6.31
		c0.55-0.39,1.4-0.87,2.53-1.45c1.13-0.58,2.49-1.08,4.07-1.49c1.58-0.41,3.25-0.62,5.02-0.62c1.16,0,2.24,0.11,3.24,0.33
		c1,0.22,1.85,0.58,2.57,1.08c0.72,0.5,1.29,1.13,1.7,1.91c0.41,0.77,0.62,1.77,0.62,2.99v4.68c-1.19-0.71-2.67-1.33-4.44-1.86
		c-1.85-0.55-4.05-0.83-6.6-0.83c-4.76,0-8.44,1.09-11.04,3.28c-2.6,2.19-3.9,5.13-3.9,8.84c0,2.6,0.61,4.81,1.83,6.64
		c1.22,1.82,2.85,3.21,4.9,4.15c2.05,0.94,4.26,1.41,6.64,1.41c2.21,0,4.38-0.4,6.51-1.2c2.13-0.8,3.9-2.02,5.31-3.65
		c0.3-0.34,0.55-0.71,0.79-1.08v5.11h8.8V612.8c0-2.54-0.69-4.69-2.07-6.43C1022.93,604.63,1021.03,603.29,1018.63,602.34z
		 M1016.22,629.85c-0.91,1.41-2.1,2.48-3.57,3.19c-1.47,0.72-3.08,1.08-4.85,1.08c-1.38,0-2.61-0.22-3.69-0.66
		c-1.08-0.44-1.92-1.12-2.53-2.03c-0.61-0.91-0.91-2-0.91-3.28c0-1.22,0.29-2.24,0.87-3.07c0.58-0.83,1.45-1.48,2.61-1.95
		c1.16-0.47,2.68-0.7,4.56-0.7c2.16,0,4.2,0.28,6.14,0.83c0.94,0.27,1.85,0.62,2.74,1.04v0.62
		C1017.59,626.79,1017.13,628.44,1016.22,629.85z"/>
	<rect x="1062.48" y="581.93" class="st0" width="9.87" height="58.08"/>
	<path class="st0" d="M1105.04,601.02c-2.65,0-4.94,0.55-6.85,1.66c-1.91,1.11-3.47,2.79-4.69,5.06v-5.89h-8.96v38.17h8.96v-23.23
		c0-1.71,0.36-3.22,1.08-4.52c0.72-1.3,1.71-2.29,2.99-2.99c1.27-0.69,2.74-1.04,4.4-1.04c2.43,0,4.23,0.72,5.39,2.16
		c1.16,1.44,1.74,3.57,1.74,6.39v23.23h9.21v-24.23c0-4.59-1.14-8.2-3.4-10.83C1112.65,602.33,1109.36,601.02,1105.04,601.02z"/>
	<polygon class="st0" points="1139.73,588.57 1130.85,588.57 1130.85,601.85 1124.46,601.85 1124.46,609.73 1130.85,609.73 
		1130.85,640.01 1139.73,640.01 1139.73,609.73 1146.12,609.73 1146.12,601.85 1139.73,601.85 	"/>
	<path class="st0" d="M1179.55,603.34c-2.82-1.55-6.25-2.32-10.29-2.32c-4.04,0-7.55,0.82-10.54,2.45c-2.99,1.63-5.3,3.94-6.93,6.93
		c-1.63,2.99-2.45,6.5-2.45,10.54c0,3.98,0.8,7.47,2.41,10.45c1.6,2.99,3.89,5.31,6.85,6.97c2.96,1.66,6.37,2.49,10.25,2.49
		c4.42,0,8.21-0.86,11.37-2.57c3.15-1.71,5.73-4.29,7.72-7.72l-7.72-3.15c-1.22,2.05-2.74,3.57-4.56,4.56
		c-1.83,1-3.96,1.49-6.39,1.49c-2.32,0-4.3-0.5-5.93-1.49c-1.63-1-2.86-2.45-3.69-4.36c-0.58-1.32-0.94-2.87-1.11-4.61h29.66
		c0.05-0.22,0.1-0.58,0.12-1.08c0.03-0.5,0.04-0.97,0.04-1.41c0-4.09-0.76-7.59-2.28-10.5
		C1184.55,607.12,1182.38,604.89,1179.55,603.34z M1163.37,609.31c1.6-1,3.54-1.49,5.81-1.49c1.88,0,3.53,0.42,4.94,1.25
		c1.41,0.83,2.52,1.99,3.32,3.48c0.67,1.24,1.04,2.69,1.15,4.31h-19.83c0.22-1.19,0.54-2.27,0.97-3.24
		C1160.55,611.75,1161.77,610.31,1163.37,609.31z"/>
	<path class="st0" d="M1225.61,608.12c-1.25-1.97-2.78-3.55-4.61-4.74c-2.41-1.58-5.21-2.37-8.42-2.37c-3.26,0-6.32,0.78-9.17,2.32
		c-2.85,1.55-5.13,3.78-6.85,6.68c-1.72,2.9-2.57,6.49-2.57,10.75c0,4.15,0.86,7.69,2.57,10.62c1.71,2.93,4,5.17,6.85,6.72
		c2.85,1.55,5.9,2.32,9.17,2.32c3.21,0,6.02-0.79,8.42-2.36c1.82-1.19,3.35-2.77,4.61-4.74v5.86c0,2.88-0.54,5.23-1.62,7.05
		c-1.08,1.83-2.48,3.18-4.19,4.07c-1.72,0.88-3.51,1.33-5.39,1.33c-2.1,0-3.96-0.39-5.56-1.16c-1.6-0.78-2.86-1.85-3.78-3.24
		c-0.91-1.38-1.4-2.93-1.45-4.65h-8.88c0.11,3.32,0.95,6.25,2.53,8.8c1.58,2.54,3.83,4.52,6.76,5.93c2.93,1.41,6.47,2.12,10.62,2.12
		c3.48,0,6.72-0.73,9.71-2.2c2.99-1.47,5.41-3.69,7.26-6.68c1.85-2.99,2.78-6.78,2.78-11.37v-37.34h-8.8V608.12z M1223.99,627.28
		c-1.08,1.8-2.46,3.14-4.15,4.02c-1.69,0.89-3.39,1.33-5.1,1.33c-2.05,0-3.94-0.46-5.68-1.37c-1.74-0.91-3.14-2.25-4.19-4.02
		c-1.05-1.77-1.58-3.93-1.58-6.47c0-2.6,0.53-4.78,1.58-6.55c1.05-1.77,2.45-3.11,4.19-4.02c1.74-0.91,3.64-1.37,5.68-1.37
		c1.27,0,2.56,0.25,3.86,0.75c1.3,0.5,2.48,1.26,3.53,2.28c1.05,1.02,1.89,2.27,2.53,3.73c0.64,1.47,0.95,3.19,0.95,5.19
		C1225.61,623.31,1225.07,625.48,1223.99,627.28z"/>
	<path class="st0" d="M1267.01,601.64c-1.22-0.41-2.52-0.62-3.9-0.62c-1.94,0-3.8,0.69-5.6,2.07c-1.19,0.91-2.21,2.06-3.11,3.39
		v-4.64h-8.88v38.17h8.88v-21.49c0-1.83,0.21-3.41,0.62-4.77c0.42-1.35,1.09-2.42,2.03-3.19c0.94-0.77,2.16-1.16,3.65-1.16
		c1.11,0,2.02,0.17,2.74,0.5c0.72,0.33,1.49,0.83,2.32,1.49l4.31-7.55C1269.25,602.79,1268.23,602.05,1267.01,601.64z"/>
	<path class="st0" d="M1299.83,602.34c-2.41-0.94-5.19-1.41-8.34-1.41c-3.54,0-6.68,0.5-9.42,1.49s-4.97,2.02-6.68,3.07l3.65,6.31
		c0.55-0.39,1.4-0.87,2.53-1.45c1.13-0.58,2.49-1.08,4.07-1.49c1.58-0.41,3.25-0.62,5.02-0.62c1.16,0,2.24,0.11,3.24,0.33
		c1,0.22,1.85,0.58,2.57,1.08c0.72,0.5,1.29,1.13,1.7,1.91c0.41,0.77,0.62,1.77,0.62,2.99v4.68c-1.19-0.71-2.67-1.33-4.44-1.86
		c-1.85-0.55-4.05-0.83-6.6-0.83c-4.76,0-8.44,1.09-11.04,3.28c-2.6,2.19-3.9,5.13-3.9,8.84c0,2.6,0.61,4.81,1.83,6.64
		c1.22,1.82,2.85,3.21,4.9,4.15c2.05,0.94,4.26,1.41,6.64,1.41c2.21,0,4.38-0.4,6.51-1.2c2.13-0.8,3.9-2.02,5.31-3.65
		c0.3-0.34,0.55-0.71,0.79-1.08v5.11h8.8V612.8c0-2.54-0.69-4.69-2.07-6.43C1304.13,604.63,1302.23,603.29,1299.83,602.34z
		 M1297.42,629.85c-0.91,1.41-2.1,2.48-3.57,3.19c-1.47,0.72-3.08,1.08-4.85,1.08c-1.38,0-2.61-0.22-3.69-0.66
		c-1.08-0.44-1.92-1.12-2.53-2.03c-0.61-0.91-0.91-2-0.91-3.28c0-1.22,0.29-2.24,0.87-3.07c0.58-0.83,1.45-1.48,2.61-1.95
		c1.16-0.47,2.68-0.7,4.56-0.7c2.16,0,4.2,0.28,6.14,0.83c0.94,0.27,1.85,0.62,2.74,1.04v0.62
		C1298.79,626.79,1298.33,628.44,1297.42,629.85z"/>
	<rect x="1318.04" y="575.29" class="st0" width="8.96" height="64.72"/>
</g>
</svg>
